# xmcd CD database file
# Copyright (C) 1993-1998 Ti Kan
#
# Track frame offsets:
# 150
# 22442
# 36340
# 48660
# 63640
# 78800
# 91497
# 109410
# 123177
# 139347
# 155347
# 173240
#
# Disc length: 2524 seconds
# Revision: 0
# Processed by: cddbd v1.4b41PL1 Copyright (c) Steve Scherf et al.
# Submitted via: CDSpectrumPro v3.3.331
#
DISCID=ab09da0c
DTITLE=Various Artist - Young Country-Queens of Country
DYEAR=1900
DGENRE=
TTITLE0=The Judds - Love Can Build A Bridge
TTITLE1=Lari White - What A Woman Wants
TTITLE2=Lorrie Morgan - What Part of No
TTITLE3=Suzy Bogguss - Just Like The Weather
TTITLE4=Linda Davis - Company Time
TTITLE5=Holly Dunn - You Really Had Me Going
TTITLE6=Nancy Griffith - Lone Star State of Mind
TTITLE7=Patty Loveless - Hurt Me Bad (In A Real Good Way)
TTITLE8=Deborah Allen - If You're Not Gonna Love Me
TTITLE9=Pam Tillis - Let That Pony Run
TTITLE10=Michelle Wright - Take It Like A Man
TTITLE11=Joy Lynn White - True Confessions
EXTD=
EXTT0=
EXTT1=
EXTT2=
EXTT3=
EXTT4=
EXTT5=
EXTT6=
EXTT7=
EXTT8=
EXTT9=
EXTT10=
EXTT11=
PLAYORDER=
